<svg id="visual" viewBox="0 0 960 540" width="960" height="540" xmlns="http://www.w3.org/2000/svg" xmlns:xlink="http://www.w3.org/1999/xlink" version="1.1"><rect width="960" height="540" fill="#001220"></rect><g><g transform="translate(614 448)"><path d="M63.2 -60.2C76.8 -33.3 79.3 -7.3 73.7 16.6C68.1 40.5 54.3 62.4 34.3 72.6C14.3 82.7 -12.1 81.2 -38.3 71.6C-64.5 62 -90.6 44.3 -97.3 20.6C-104.1 -3.2 -91.5 -33 -72 -61.3C-52.6 -89.6 -26.3 -116.3 -0.8 -115.7C24.8 -115.1 49.5 -87.1 63.2 -60.2Z" fill="#3762E3"></path></g><g transform="translate(245 469)"><path d="M52.4 -37.9C68.3 -21.7 82 0.1 77.6 16.9C73.1 33.8 50.4 45.7 30.4 50.4C10.4 55.1 -6.9 52.7 -21.1 45.3C-35.3 37.9 -46.3 25.5 -53 8.6C-59.6 -8.3 -61.9 -29.7 -52.3 -44.4C-42.8 -59.1 -21.4 -67 -1.6 -65.7C18.2 -64.5 36.4 -54 52.4 -37.9Z" fill="#3762E3"></path></g><g transform="translate(890 223)"><path d="M59.3 -49C68.7 -35.5 62.6 -11.3 56.6 12.1C50.6 35.4 44.7 58 28.5 70C12.2 82 -14.3 83.4 -34.6 73.2C-54.8 62.9 -68.7 40.9 -69.2 20.9C-69.6 1 -56.6 -16.9 -42.8 -31.4C-29.1 -46 -14.5 -57.2 5.2 -61.3C24.9 -65.5 49.9 -62.6 59.3 -49Z" fill="#3762E3"></path></g></g></svg>