<svg id="visual" viewBox="0 0 960 540" width="960" height="540" xmlns="http://www.w3.org/2000/svg" xmlns:xlink="http://www.w3.org/1999/xlink" version="1.1"><rect width="960" height="540" fill="#001220"></rect><g><g transform="translate(84 347)"><path d="M68.3 -56.8C82.1 -37.2 82.3 -9.2 74.9 14.6C67.5 38.5 52.5 58.1 32 69C11.5 79.9 -14.6 82.1 -40.4 73.6C-66.2 65.1 -91.9 46 -98.5 21.3C-105.1 -3.4 -92.6 -33.6 -73 -54.5C-53.4 -75.4 -26.7 -87 0.3 -87.2C27.3 -87.5 54.6 -76.4 68.3 -56.8Z" fill="#3762e3"></path></g><g transform="translate(724 508)"><path d="M43.4 -35.5C54.7 -20.6 61 -2.6 58.3 14.9C55.6 32.4 43.8 49.4 28.4 55.6C12.9 61.8 -6.2 57.2 -23.7 48.9C-41.3 40.6 -57.3 28.7 -62.2 12.6C-67.2 -3.4 -61 -23.6 -48.8 -38.7C-36.6 -53.9 -18.3 -64 -1.1 -63.2C16.1 -62.3 32.2 -50.4 43.4 -35.5Z" fill="#3762e3"></path></g><g transform="translate(760 217)"><path d="M48 -37.4C57.7 -26.1 57.9 -6.4 53.4 11.8C49 30 39.8 46.8 26.2 52.7C12.5 58.6 -5.5 53.7 -24.5 46.3C-43.4 38.9 -63.3 28.9 -69.1 13C-75 -2.9 -66.7 -24.7 -52.8 -37C-38.9 -49.2 -19.5 -51.8 -0.2 -51.6C19.1 -51.5 38.3 -48.6 48 -37.4Z" fill="#3762e3"></path></g></g></svg>