<svg id="visual" viewBox="0 0 960 540" width="960" height="540" xmlns="http://www.w3.org/2000/svg" xmlns:xlink="http://www.w3.org/1999/xlink" version="1.1"><rect x="0" y="0" width="960" height="540" fill="#001220"></rect><path d="M0 470L11.5 463C23 456 46 442 68.8 420C91.7 398 114.3 368 137.2 367.5C160 367 183 396 205.8 409C228.7 422 251.3 419 274.2 425.3C297 431.7 320 447.3 342.8 437.3C365.7 427.3 388.3 391.7 411.2 375.7C434 359.7 457 363.3 480 367.3C503 371.3 526 375.7 548.8 392.8C571.7 410 594.3 440 617.2 447.3C640 454.7 663 439.3 685.8 419.7C708.7 400 731.3 376 754.2 371C777 366 800 380 822.8 385.3C845.7 390.7 868.3 387.3 891.2 381.5C914 375.7 937 367.3 948.5 363.2L960 359L960 541L948.5 541C937 541 914 541 891.2 541C868.3 541 845.7 541 822.8 541C800 541 777 541 754.2 541C731.3 541 708.7 541 685.8 541C663 541 640 541 617.2 541C594.3 541 571.7 541 548.8 541C526 541 503 541 480 541C457 541 434 541 411.2 541C388.3 541 365.7 541 342.8 541C320 541 297 541 274.2 541C251.3 541 228.7 541 205.8 541C183 541 160 541 137.2 541C114.3 541 91.7 541 68.8 541C46 541 23 541 11.5 541L0 541Z" fill="#fcd83d" stroke-linecap="round" stroke-linejoin="miter"></path></svg>