<svg id="visual" viewBox="0 0 960 540" width="960" height="540" xmlns="http://www.w3.org/2000/svg" xmlns:xlink="http://www.w3.org/1999/xlink" version="1.1"><rect x="0" y="0" width="960" height="540" fill="#001220"></rect><path d="M0 374L22.8 369.7C45.7 365.3 91.3 356.7 137 354.2C182.7 351.7 228.3 355.3 274 352.5C319.7 349.7 365.3 340.3 411.2 346C457 351.7 503 372.3 548.8 378.2C594.7 384 640.3 375 686 369C731.7 363 777.3 360 823 360.3C868.7 360.7 914.3 364.3 937.2 366.2L960 368L960 541L937.2 541C914.3 541 868.7 541 823 541C777.3 541 731.7 541 686 541C640.3 541 594.7 541 548.8 541C503 541 457 541 411.2 541C365.3 541 319.7 541 274 541C228.3 541 182.7 541 137 541C91.3 541 45.7 541 22.8 541L0 541Z" fill="#3762e3"></path><path d="M0 386L22.8 383C45.7 380 91.3 374 137 371.3C182.7 368.7 228.3 369.3 274 376.5C319.7 383.7 365.3 397.3 411.2 395.5C457 393.7 503 376.3 548.8 367C594.7 357.7 640.3 356.3 686 365.2C731.7 374 777.3 393 823 401C868.7 409 914.3 406 937.2 404.5L960 403L960 541L937.2 541C914.3 541 868.7 541 823 541C777.3 541 731.7 541 686 541C640.3 541 594.7 541 548.8 541C503 541 457 541 411.2 541C365.3 541 319.7 541 274 541C228.3 541 182.7 541 137 541C91.3 541 45.7 541 22.8 541L0 541Z" fill="#1c55b8"></path><path d="M0 423L22.8 418.3C45.7 413.7 91.3 404.3 137 408C182.7 411.7 228.3 428.3 274 435.7C319.7 443 365.3 441 411.2 438.3C457 435.7 503 432.3 548.8 430.8C594.7 429.3 640.3 429.7 686 430.5C731.7 431.3 777.3 432.7 823 427.2C868.7 421.7 914.3 409.3 937.2 403.2L960 397L960 541L937.2 541C914.3 541 868.7 541 823 541C777.3 541 731.7 541 686 541C640.3 541 594.7 541 548.8 541C503 541 457 541 411.2 541C365.3 541 319.7 541 274 541C228.3 541 182.7 541 137 541C91.3 541 45.7 541 22.8 541L0 541Z" fill="#14478d"></path><path d="M0 434L22.8 437.5C45.7 441 91.3 448 137 456.2C182.7 464.3 228.3 473.7 274 479.2C319.7 484.7 365.3 486.3 411.2 480.8C457 475.3 503 462.7 548.8 459.3C594.7 456 640.3 462 686 467.3C731.7 472.7 777.3 477.3 823 474.2C868.7 471 914.3 460 937.2 454.5L960 449L960 541L937.2 541C914.3 541 868.7 541 823 541C777.3 541 731.7 541 686 541C640.3 541 594.7 541 548.8 541C503 541 457 541 411.2 541C365.3 541 319.7 541 274 541C228.3 541 182.7 541 137 541C91.3 541 45.7 541 22.8 541L0 541Z" fill="#1a3863"></path><path d="M0 480L22.8 485C45.7 490 91.3 500 137 499.3C182.7 498.7 228.3 487.3 274 488C319.7 488.7 365.3 501.3 411.2 505.5C457 509.7 503 505.3 548.8 501.8C594.7 498.3 640.3 495.7 686 493.7C731.7 491.7 777.3 490.3 823 491.7C868.7 493 914.3 497 937.2 499L960 501L960 541L937.2 541C914.3 541 868.7 541 823 541C777.3 541 731.7 541 686 541C640.3 541 594.7 541 548.8 541C503 541 457 541 411.2 541C365.3 541 319.7 541 274 541C228.3 541 182.7 541 137 541C91.3 541 45.7 541 22.8 541L0 541Z" fill="#1d283a"></path></svg>